<?xml version="1.0" encoding="utf-8"?>
<!-- Generator: Adobe Illustrator 27.0.0, SVG Export Plug-In . SVG Version: 6.00 Build 0)  -->
<svg version="1.1" id="Livello_1" xmlns="http://www.w3.org/2000/svg" xmlns:xlink="http://www.w3.org/1999/xlink" x="0px" y="0px"
	 viewBox="0 0 300 300" style="enable-background:new 0 0 300 300;" xml:space="preserve">
<style type="text/css">
	.st0{fill:#FFFFFF;}
</style>
<g>
	<g>
		<path class="st0" d="M79.1,213c0.1-13.2,5.4-24.5,14.8-33.2c11.1-10.3,19.8-22.3,28.1-34.8c3.4-5,7.7-9.8,12.7-13.2
			c13-8.9,29.3-5.6,39.7,7.7c5.3,6.8,9.4,14.5,14.9,21.2c6.8,8.3,14.8,15.7,21.6,24.1c8.6,10.7,12.7,22.9,9.4,36.8
			c-3.7,15.4-18.4,25.2-34,22.4c-5.9-1.1-11.7-2.3-17.4-4.1c-12.4-4-24.7-4-37.2-0.1c-5.4,1.7-10.9,3-16.4,3.9
			C95,247.1,79.2,233.6,79.1,213z"/>
		<path class="st0" d="M208.4,84.7c-1.2,14.7-5.3,27.4-17.6,35.8c-10.6,7.3-23,4.3-29.5-6.7c-9.3-15.8-4.4-41.7,9.9-53.2
			c14.5-11.6,31.7-4.8,35.8,14.4C207.8,78.3,208.1,81.8,208.4,84.7z"/>
		<path class="st0" d="M92.2,84.8c0.1-7.6,1.7-14.8,6.1-21.2c6.2-8.8,16.4-11.5,25.9-6.3c11.6,6.4,16.7,17.1,19,29.5
			c1.4,7.8,0.8,15.6-2.3,23c-6.6,15.9-22.6,19.3-35.2,7.6C97.3,109.8,92.2,97.4,92.2,84.8z"/>
		<path class="st0" d="M257.2,133.9c0,16.7-12,33.5-26.2,36.7c-10.3,2.3-19.4-2.3-23.5-12c-7.6-17.9,4.5-43.1,23.2-48.5
			c13.4-3.9,25.4,5.8,26.4,21.3C257.2,132.2,257.2,133,257.2,133.9z"/>
		<path class="st0" d="M42.9,132.8c0.5-2.5,0.9-5.8,1.9-8.9c4-12.3,15.4-17.6,27.4-13c17.1,6.6,27.5,30.5,20.7,47.5
			c-4.6,11.6-16.8,16.3-28.4,10.5C50.2,161.7,44.2,149.1,42.9,132.8z"/>
	</g>
</g>
</svg>
